<svg xmlns="http://www.w3.org/2000/svg" viewBox="0 0 120 120" fill="none">
  <rect width="120" height="120" rx="24" fill="#15213d"/>
  <g stroke="#d6b154" stroke-linecap="square">
    <path d="M24 60a36 36 0 0 1 36-36" stroke-width="2"/>
    <path d="M60 24a36 36 0 0 1 36 36" stroke-width="2" stroke-dasharray="14 6"/>
    <path d="M96 60a36 36 0 0 1-36 36" stroke-width="2" stroke-dasharray="8 8"/>
    <path d="M60 96a36 36 0 0 1-36-36" stroke-width="2" stroke-dasharray="18 5"/>
  </g>
  <rect x="17" y="39" width="18" height="3" fill="#f5d77d"/>
  <rect x="83" y="33" width="21" height="3" fill="#c9972e"/>
  <rect x="82" y="83" width="16" height="3" fill="#f5d77d"/>
  <rect x="24" y="88" width="19" height="3" fill="#9f751d"/>
  <path d="M60 24 L67 53 L96 60 L67 67 L60 96 L53 67 L24 60 L53 53 Z" fill="#d8ad4d" opacity=".85"/>
  <path d="M60 37 L64 56 L83 60 L64 64 L60 83 L56 64 L37 60 L56 56 Z" fill="#ffdf7d"/>
</svg>
